<svg xmlns="http://www.w3.org/2000/svg" xmlns:xlink="http://www.w3.org/1999/xlink" width="500" zoomAndPan="magnify" viewBox="0 0 375 374.999991" height="500" preserveAspectRatio="xMidYMid meet" version="1.0"><defs><g/><clipPath id="cfa1caea5e"><path d="M 13.863281 56 L 292 56 L 292 361.113281 L 13.863281 361.113281 Z M 13.863281 56 " clip-rule="nonzero"/></clipPath><clipPath id="f566b90332"><path d="M 83 13.863281 L 361.113281 13.863281 L 361.113281 319 L 83 319 Z M 83 13.863281 " clip-rule="nonzero"/></clipPath></defs><rect x="-37.5" width="450" fill="#ffffff" y="-37.499999" height="449.999989" fill-opacity="1"/><rect x="-37.5" width="450" fill="#000000" y="-37.499999" height="449.999989" fill-opacity="1"/><g clip-path="url(#cfa1caea5e)"><path fill="#804dee" d="M 238.320312 193.1875 L 282.460938 193.1875 L 282.25 321.917969 C 255.4375 340.878906 222.75 352.0625 187.480469 352.0625 C 96.730469 352.0625 22.90625 278.230469 22.90625 187.488281 C 22.90625 140.59375 42.65625 98.25 74.230469 68.246094 L 74.230469 56.050781 C 37.3125 87.914062 13.863281 135 13.863281 187.488281 C 13.863281 283.226562 91.75 361.113281 187.488281 361.113281 C 226.554688 361.113281 262.652344 348.128906 291.695312 326.269531 L 291.695312 184.6875 L 238.328125 184.6875 L 238.328125 193.1875 Z M 238.320312 193.1875 " fill-opacity="1" fill-rule="nonzero"/></g><path fill="#804dee" d="M 243.929688 131.308594 C 258.222656 131.308594 273.601562 136.738281 284.632812 147.589844 L 290.242188 141.4375 C 277.394531 128.773438 260.570312 122.441406 243.929688 122.441406 C 205.390625 122.441406 178.4375 148.316406 178.613281 187.933594 C 178.613281 222.492188 200.863281 252.523438 243.929688 252.523438 C 254.5 252.523438 264.089844 250.246094 272.8125 245.902344 L 272.8125 235.679688 C 263.855469 240.820312 253.75 243.300781 243.929688 243.300781 C 207.019531 243.300781 188.023438 217.609375 188.023438 187.757812 C 187.839844 158.445312 206.84375 131.308594 243.929688 131.308594 Z M 243.929688 131.308594 " fill-opacity="1" fill-rule="nonzero"/><g clip-path="url(#f566b90332)"><path fill="#ffffff" d="M 187.488281 13.863281 C 148.414062 13.863281 112.324219 26.84375 83.28125 48.707031 L 83.28125 250.714844 L 93.050781 250.714844 L 93.050781 188.476562 L 159.808594 250.898438 L 172.109375 250.898438 L 172.109375 250.171875 L 102.632812 184.863281 L 166.316406 125.15625 L 166.316406 124.253906 L 154.558594 124.253906 L 93.042969 181.964844 L 93.042969 52.816406 C 119.796875 33.996094 152.359375 22.914062 187.480469 22.914062 C 278.230469 22.914062 352.054688 96.746094 352.054688 187.488281 C 352.054688 234.382812 332.304688 276.726562 300.730469 306.730469 L 300.730469 318.917969 C 337.65625 287.054688 361.105469 239.96875 361.105469 187.488281 C 361.113281 91.75 283.226562 13.863281 187.488281 13.863281 Z M 187.488281 13.863281 " fill-opacity="1" fill-rule="nonzero"/></g><g fill="#ffffff" fill-opacity="1"><g transform="translate(84.459558, 142.948937)"><g><path d="M 1.5 0 L 1.5 -12.078125 L 2.78125 -12.078125 L 2.78125 -5.03125 L 2.984375 -5.03125 L 6.1875 -8.625 L 7.53125 -8.625 L 7.53125 -8.4375 L 4.109375 -4.578125 L 7.859375 -0.203125 L 7.859375 0 L 6.4375 0 L 2.984375 -3.984375 L 2.78125 -3.984375 L 2.78125 0 Z M 1.5 0 "/></g></g></g></svg>